<svg xmlns="http://www.w3.org/2000/svg" viewBox="0 0 280 72" role="img" aria-labelledby="title desc">
  <title id="title">Plaza de Armas Piura</title>
  <desc id="desc">Símbolo inspirado en el monumento central, el sol piurano y los árboles de la plaza.</desc>
  <g fill="none" fill-rule="evenodd">
    <circle cx="34" cy="26" r="13" fill="#D98B44"/>
    <path d="M13 49c10-13 18-16 28-16s18 3 28 16" fill="#244433"/>
    <path d="M34 14v19M27 22l7-8 7 8" stroke="#F8F0E4" stroke-width="3" stroke-linecap="round" stroke-linejoin="round"/>
    <path d="M25 39h18l-2 8H27zM22 47h24v5H22z" fill="#C56F3E"/>
    <path d="M13 49c5-5 9-8 15-10-8 1-13 4-18 9zm42 0c-5-5-9-8-15-10 8 1 13 4 18 9z" fill="#5B7655"/>
    <text x="82" y="31" fill="#1D2A24" font-family="Georgia, 'Times New Roman', serif" font-size="21" font-weight="700">PLAZA DE ARMAS</text>
    <text x="82" y="53" fill="#9A5837" font-family="Arial, sans-serif" font-size="15" font-weight="700" letter-spacing="4">PIURA</text>
  </g>
</svg>
